<svg width="130" height="40" viewBox="0 0 130 40" fill="none" xmlns="http://www.w3.org/2000/svg">
    <path fill="#f8f7f3" d="M92.7076 11.6279C90.2679 11.6279 87.3531 12.5 84.5624 15.5249C81.7716 12.5 78.8359 11.6279 76.4203 11.6279C76.4203 11.6279 67.0801 10.9238 67.0801 21.8508V39.5349H73.8405V22.844C73.8405 17.9506 77.1063 17.8472 77.7473 17.9926C77.7473 17.9926 78.9261 18.0572 80.0018 19.1747C80.0018 19.1747 77.8519 21.9945 77.6861 25.5378C77.6861 25.5378 77.211 34.7222 84.5495 34.7222C91.888 34.7222 91.4129 25.5378 91.4129 25.5378C91.247 21.9929 89.0972 19.1747 89.0972 19.1747C90.1729 18.0556 91.3517 17.9926 91.3517 17.9926C91.9717 17.8311 95.2585 17.9506 95.2585 22.844V39.5349H102.019V21.8508C101.998 10.9254 92.6786 11.6279 92.6786 11.6279H92.7076ZM84.543 29.7481C83.0937 29.7481 82.6203 27.9231 82.5993 26.1822C82.5574 23.1557 84.5221 20.9787 84.543 20.9367C84.5849 20.9787 86.527 23.1557 86.4868 26.1822C86.4868 27.9231 85.9908 29.7481 84.543 29.7481ZM56.5322 12.0849H63.2925V39.5397H56.5322V12.0849ZM59.922 0.182492C57.6675 0.182492 55.8075 2.00743 55.8075 4.2458C55.8097 5.33951 56.2438 6.3878 57.015 7.16117C57.7861 7.93454 58.8315 8.36996 59.922 8.37209C62.154 8.37209 63.9737 6.52778 63.9737 4.2458C63.9596 3.17257 63.5281 2.14729 62.7713 1.38833C62.0145 0.629371 60.9922 0.196709 59.922 0.182492ZM35.1351 13.9099V0H28.436V39.5559H35.1351V19.7561C46.2355 14.3459 45.8232 22.9054 45.8232 22.9054V39.5349H52.5417V22.907C52.5207 6.8217 38.5057 12.1269 35.1496 13.9309L35.1351 13.9099ZM111.312 27.156C114.91 28.4205 119.477 28.3188 119.477 28.3188C130.31 28.2542 129.999 20.3569 129.999 20.3569C129.73 11.4632 119.311 11.6295 119.311 11.6295C110.691 11.6295 104.657 17.5565 104.657 26.0384C104.657 34.5203 110.567 39.9919 119.706 39.9919C123.591 39.9919 127.274 38.9131 129.877 37.0268V30.4958C127.168 32.8375 123.923 34.0811 120.491 34.0811C120.512 34.0811 111.127 34.5575 111.312 27.156ZM112.138 21.3711C113.275 18.49 115.633 16.9784 118.982 16.9784C121.731 16.9784 123.324 18.1411 123.324 19.9822C123.324 22.5743 120.425 22.802 117.681 22.802C114.992 22.802 113.34 22.5113 112.596 22.3256L111.871 22.1592L112.138 21.3711ZM14.5819 39.9871C19.3374 39.9871 22.7063 38.1831 24.7273 36.6699V30.0969C21.7707 32.4386 18.2987 33.7871 15.218 33.7871C10.2983 33.7871 6.84409 30.3876 6.84409 25.4942C6.84409 20.8511 9.98432 17.6163 14.4724 17.6163C15.9218 17.6163 17.2004 17.9877 18.5467 18.3624C19.9316 18.7565 21.3809 19.1909 23.0944 19.1909C23.6322 19.1909 24.1701 19.1489 24.7048 19.0665V12.8068L23.3617 12.8876C21.8109 12.8876 20.4051 12.5969 18.938 12.2868C17.3872 11.9557 15.7978 11.6408 13.9136 11.6408C10.1727 11.6408 6.69916 12.9683 4.15477 15.4134C1.44612 18.0055 0 21.6118 0 25.8204C0 34.1747 5.99542 40 14.5948 40L14.5819 39.9871Z"/>
</svg>
