<svg width="164" height="40" viewBox="0 0 164 40" fill="none" xmlns="http://www.w3.org/2000/svg">
    <path fill="#f8f7f3" fill-rule="evenodd" clip-rule="evenodd" d="M16.8966 13.6232C17.16 13.6232 17.3816 13.6351 17.5612 13.6589C17.7408 13.6828 17.9024 13.7275 18.0461 13.7931C18.1898 13.8587 18.3275 13.9511 18.4592 14.0703C18.591 14.1895 18.7406 14.3505 18.9083 14.5532L31.3376 30.2017C31.2897 29.7009 31.2538 29.2151 31.2298 28.7442C31.2059 28.2732 31.1939 27.8291 31.1939 27.4118V13.6232H36.5464V39.6803H33.3852C32.9182 39.6803 32.5231 39.6087 32.1997 39.4656C31.8764 39.3226 31.5651 39.0603 31.2658 38.6787L18.9262 23.1554C18.9622 23.6084 18.9921 24.0526 19.016 24.4877C19.04 24.9229 19.052 25.3313 19.052 25.7128V39.6803H13.6995V13.6232H16.8966ZM55.4418 18.9169C55.2622 19.203 55.0736 19.4176 54.8761 19.5607C54.6785 19.7038 54.424 19.7753 54.1127 19.7753C53.8373 19.7753 53.5409 19.6889 53.2236 19.516C52.9063 19.3431 52.5471 19.1494 52.1459 18.9347C51.7448 18.7201 51.2868 18.5264 50.7719 18.3535C50.257 18.1806 49.6702 18.0942 49.0117 18.0942C47.8741 18.0942 47.0269 18.3356 46.4701 18.8185C45.9133 19.3014 45.6349 19.9541 45.6349 20.7768C45.6349 21.3014 45.8025 21.7366 46.1378 22.0823C46.4731 22.4281 46.9132 22.7262 47.458 22.9765C48.0028 23.2269 48.6255 23.4564 49.326 23.6651C50.0265 23.8737 50.7419 24.1062 51.4724 24.3626C52.2028 24.6189 52.9183 24.9199 53.6188 25.2657C54.3193 25.6115 54.9419 26.0526 55.4868 26.5891C56.0316 27.1256 56.4716 27.7784 56.8069 28.5474C57.1422 29.3164 57.3098 30.2434 57.3098 31.3284C57.3098 32.5326 57.1003 33.6593 56.6812 34.7085C56.2621 35.7577 55.6544 36.6727 54.8581 37.4537C54.0618 38.2346 53.0799 38.8486 51.9124 39.2957C50.7449 39.7428 49.4188 39.9664 47.934 39.9664C47.1197 39.9664 46.2905 39.8829 45.4463 39.716C44.6021 39.5491 43.7849 39.3136 42.9946 39.0096C42.2043 38.7056 41.4619 38.3449 40.7674 37.9276C40.0728 37.5103 39.4681 37.0453 38.9532 36.5327L40.7494 33.707C40.8811 33.4924 41.0667 33.3195 41.3062 33.1883C41.5457 33.0572 41.8031 32.9916 42.0785 32.9916C42.4378 32.9916 42.8 33.1049 43.1652 33.3314C43.5304 33.5579 43.9435 33.8083 44.4045 34.0825C44.8656 34.3568 45.3954 34.6071 45.9941 34.8337C46.5928 35.0602 47.2993 35.1735 48.1136 35.1735C49.2152 35.1735 50.0714 34.932 50.6821 34.4492C51.2928 33.9663 51.5981 33.2003 51.5981 32.1511C51.5981 31.543 51.4305 31.0482 51.0952 30.6667C50.7599 30.2852 50.3198 29.9692 49.775 29.7188C49.2302 29.4685 48.6105 29.2479 47.916 29.0571C47.2215 28.8664 46.509 28.6547 45.7786 28.4222C45.0482 28.1897 44.3357 27.9036 43.6412 27.5638C42.9467 27.224 42.327 26.7769 41.7822 26.2225C41.2373 25.6681 40.7973 24.9766 40.462 24.1479C40.1267 23.3193 39.9591 22.297 39.9591 21.0808C39.9591 20.1032 40.1567 19.1494 40.5518 18.2194C40.947 17.2894 41.5277 16.4608 42.2941 15.7335C43.0604 15.0062 44.0004 14.425 45.114 13.9898C46.2276 13.5546 47.5029 13.337 48.9398 13.337C49.7421 13.337 50.5234 13.3996 51.2838 13.5248C52.0441 13.65 52.7656 13.8348 53.4481 14.0792C54.1307 14.3236 54.7683 14.6157 55.361 14.9555C55.9538 15.2953 56.4836 15.6798 56.9506 16.1091L55.4418 18.9169ZM71.212 34.9052C72.0263 34.9052 72.7537 34.7711 73.3943 34.5028C74.0349 34.2346 74.5768 33.8501 75.0198 33.3493C75.4629 32.8485 75.8011 32.2375 76.0346 31.5162C76.2681 30.7949 76.3849 29.9752 76.3849 29.0571V13.6232H82.4559V29.0571C82.4559 30.6548 82.1954 32.1212 81.6745 33.4566C81.1536 34.7919 80.4083 35.9425 79.4383 36.9082C78.4684 37.874 77.289 38.6251 75.8999 39.1616C74.5109 39.6981 72.9483 39.9664 71.212 39.9664C69.4637 39.9664 67.8951 39.6981 66.5061 39.1616C65.1171 38.6251 63.9376 37.874 62.9677 36.9082C61.9978 35.9425 61.2554 34.7919 60.7405 33.4566C60.2256 32.1212 59.9681 30.6548 59.9681 29.0571V13.6232H66.0391V29.0392C66.0391 29.9573 66.1558 30.777 66.3893 31.4983C66.6228 32.2196 66.9611 32.8336 67.4042 33.3404C67.8472 33.8471 68.389 34.2346 69.0297 34.5028C69.6703 34.7711 70.3977 34.9052 71.212 34.9052ZM92.4783 30.0407V39.6803H86.4074V13.6232H94.9211C96.813 13.6232 98.4266 13.8169 99.7617 14.2044C101.097 14.5919 102.187 15.1314 103.031 15.8229C103.875 16.5144 104.489 17.3311 104.872 18.273C105.255 19.2149 105.446 20.2403 105.446 21.3491C105.446 22.1956 105.333 22.9944 105.105 23.7456C104.878 24.4967 104.539 25.1912 104.09 25.829C103.641 26.4669 103.091 27.0362 102.438 27.537C101.785 28.0377 101.034 28.4491 100.184 28.771C100.591 28.9737 100.971 29.224 101.324 29.5221C101.678 29.8202 101.986 30.1838 102.249 30.613L107.817 39.6803H102.321C101.303 39.6803 100.573 39.2987 100.13 38.5357L95.7832 30.9707C95.5917 30.6369 95.3671 30.3984 95.1097 30.2554C94.8522 30.1123 94.49 30.0407 94.023 30.0407H92.4783ZM92.4783 25.8738H94.9211C95.7473 25.8738 96.4508 25.7694 97.0316 25.5608C97.6123 25.3521 98.0883 25.063 98.4595 24.6934C98.8307 24.3238 99.1001 23.8916 99.2678 23.3968C99.4354 22.902 99.5192 22.3685 99.5192 21.7962C99.5192 20.6516 99.145 19.7574 98.3966 19.1136C97.6482 18.4698 96.4897 18.1478 94.9211 18.1478H92.4783V25.8738Z"/>
    <path fill="#f8f7f3" fill-rule="evenodd" clip-rule="evenodd" d="M138.316 13.9438V18.5935H127.576V25.1925H136.52V29.8601H127.576V40H121.469V13.9438H138.316ZM154.517 30.0926V40H148.446V30.0926L138.963 13.9438H144.315C144.842 13.9438 145.261 14.0661 145.572 14.3105C145.884 14.5549 146.135 14.8678 146.327 15.2493L150.027 22.8319C150.326 23.4399 150.601 24.0003 150.853 24.5129C151.104 25.0256 151.326 25.5323 151.517 26.033C151.697 25.5204 151.913 25.0077 152.164 24.4951C152.415 23.9824 152.685 23.428 152.972 22.8319L156.636 15.2493C156.708 15.0943 156.807 14.9394 156.933 14.7844C157.058 14.6294 157.202 14.4893 157.364 14.3641C157.525 14.2389 157.711 14.1376 157.92 14.0601C158.13 13.9826 158.361 13.9438 158.612 13.9438H164L154.517 30.0926Z"/>
    <path fill="#f8f7f3" fill-rule="evenodd" clip-rule="evenodd" d="M8.62208 13.9438V40H2.13159V13.9438H8.62208Z"/>
    <path fill="#f8f7f3" fill-rule="evenodd" clip-rule="evenodd" d="M10.325 7.4077C10.0297 8.042 9.63781 8.59701 9.14939 9.07273C8.66097 9.54846 8.08736 9.9279 7.42856 10.2111C6.76975 10.4942 6.06552 10.6358 5.31585 10.6358C4.58889 10.6358 3.9017 10.4942 3.25425 10.2111C2.60681 9.9279 2.04456 9.54846 1.56749 9.07273C1.09043 8.59701 0.709917 8.042 0.425949 7.4077C0.141982 6.7734 0 6.0938 0 5.36888C0 4.62131 0.141982 3.91906 0.425949 3.26211C0.709917 2.60515 1.09043 2.03882 1.56749 1.56309C2.04456 1.08737 2.60681 0.707924 3.25425 0.424753C3.9017 0.141583 4.58889 0 5.31585 0C6.06552 0 6.76975 0.141583 7.42856 0.424753C8.08736 0.707924 8.66097 1.08737 9.14939 1.56309C9.63781 2.03882 10.0297 2.60515 10.325 3.26211C10.6203 3.91906 10.768 4.62131 10.768 5.36888C10.768 6.0938 10.6203 6.7734 10.325 7.4077Z"/>
    <path fill="#f8f7f3" fill-rule="evenodd" clip-rule="evenodd" d="M116.39 13.9438V40H109.899V13.9438H116.39Z"/>
    <path fill="#f8f7f3" fill-rule="evenodd" clip-rule="evenodd" d="M118.091 7.40604C117.796 8.04019 117.404 8.59508 116.916 9.07069C116.427 9.54631 115.854 9.92567 115.195 10.2088C114.537 10.4919 113.832 10.6334 113.083 10.6334C112.356 10.6334 111.669 10.4919 111.022 10.2088C110.375 9.92567 109.812 9.54631 109.335 9.07069C108.858 8.59508 108.478 8.04019 108.194 7.40604C107.91 6.77188 107.768 6.09243 107.768 5.36768C107.768 4.62028 107.91 3.91818 108.194 3.26137C108.478 2.60457 108.858 2.03836 109.335 1.56274C109.812 1.08712 110.375 0.707765 111.022 0.424658C111.669 0.141551 112.356 0 113.083 0C113.832 0 114.537 0.141551 115.195 0.424658C115.854 0.707765 116.427 1.08712 116.916 1.56274C117.404 2.03836 117.796 2.60457 118.091 3.26137C118.386 3.91818 118.534 4.62028 118.534 5.36768C118.534 6.09243 118.386 6.77188 118.091 7.40604Z"/>
</svg>
