<svg width="208" height="64" viewBox="0 0 208 64" fill="none" xmlns="http://www.w3.org/2000/svg">
    <path fill="#f8f7f3" d="M64.1228 58.6665C59.4828 58.6665 55.6357 57.1385 52.5816 54.0825C49.5273 50.997 48.0002 47.1917 48.0002 42.6665C48.0002 38.1413 49.5273 34.3506 52.5816 31.2946C55.6357 28.2092 59.4828 26.6665 64.1228 26.6665C66.9126 26.6665 69.4822 27.3277 71.8317 28.65C74.2104 29.9722 76.0605 31.7648 77.3821 34.0274L72.977 36.5838C72.1546 35.0558 70.9506 33.851 69.3648 32.9696C67.8084 32.0586 66.061 31.6032 64.1228 31.6032C60.8337 31.6032 58.1613 32.6462 56.1056 34.7326C54.0792 36.8189 53.0661 39.4636 53.0661 42.6665C53.0661 45.8694 54.0792 48.5141 56.1056 50.6004C58.1613 52.6868 60.8337 53.7298 64.1228 53.7298C66.061 53.7298 67.823 53.289 69.4089 52.4076C70.9946 51.4966 72.1841 50.2772 72.977 48.7492L77.3821 51.2616C76.0898 53.5242 74.2545 55.3313 71.8757 56.683C69.5264 58.0053 66.942 58.6665 64.1228 58.6665Z"/>
    <path fill="#f8f7f3" d="M98.6831 36.0552H103.441V58.0938H98.6831V54.9203C96.8917 57.418 94.322 58.6668 90.9741 58.6668C87.9493 58.6668 85.3651 57.5502 83.2213 55.317C81.0775 53.0543 80.0056 50.3068 80.0056 47.0746C80.0056 43.8128 81.0775 41.0654 83.2213 38.8322C85.3651 36.5988 87.9493 35.4823 90.9741 35.4823C94.322 35.4823 96.8917 36.7164 98.6831 39.1847V36.0552ZM86.7453 52.1434C88.0668 53.4658 89.7261 54.1268 91.7231 54.1268C93.72 54.1268 95.3792 53.4658 96.7008 52.1434C98.0223 50.7918 98.6831 49.102 98.6831 47.0746C98.6831 45.047 98.0223 43.372 96.7008 42.0498C95.3792 40.698 93.72 40.0222 91.7231 40.0222C89.7261 40.0222 88.0668 40.698 86.7453 42.0498C85.4239 43.372 84.7631 45.047 84.7631 47.0746C84.7631 49.102 85.4239 50.7918 86.7453 52.1434Z"/>
    <path fill="#f8f7f3" d="M113.743 39.7574C114.947 37.0246 117.209 35.6582 120.527 35.6582V40.8153C118.706 40.6977 117.121 41.1385 115.77 42.1375C114.419 43.1073 113.743 44.7234 113.743 46.9861V58.0934H108.986V36.0549H113.743V39.7574Z"/>
    <path fill="#f8f7f3" d="M128.536 31.8676C127.948 32.4553 127.243 32.7492 126.421 32.7492C125.599 32.7492 124.879 32.4553 124.263 31.8676C123.675 31.2505 123.382 30.5306 123.382 29.7078C123.382 28.885 123.675 28.1798 124.263 27.5921C124.85 26.975 125.569 26.6665 126.421 26.6665C127.273 26.6665 127.992 26.975 128.58 27.5921C129.167 28.1798 129.461 28.885 129.461 29.7078C129.461 30.5306 129.152 31.2505 128.536 31.8676ZM124.042 58.0934V36.0549H128.8V58.0934H124.042Z"/>
    <path fill="#f8f7f3" d="M146.79 35.4821C149.815 35.4821 152.399 36.5987 154.543 38.832C156.687 41.0652 157.759 43.8127 157.759 47.0744C157.759 50.3067 156.687 53.0541 154.543 55.3168C152.399 57.55 149.815 58.6667 146.79 58.6667C143.442 58.6667 140.872 57.4179 139.082 54.9201V58.0936H134.324V27.2397H139.082V39.1845C140.872 36.7163 143.442 35.4821 146.79 35.4821ZM141.063 52.1432C142.386 53.4656 144.044 54.1267 146.042 54.1267C148.038 54.1267 149.698 53.4656 151.019 52.1432C152.34 50.7916 153.002 49.1019 153.002 47.0744C153.002 45.0468 152.34 43.3719 151.019 42.0496C149.698 40.6979 148.038 40.022 146.042 40.022C144.044 40.022 142.386 40.6979 141.063 42.0496C139.742 43.3719 139.082 45.0468 139.082 47.0744C139.082 49.1019 139.742 50.7916 141.063 52.1432Z"/>
    <path fill="#f8f7f3" d="M172.467 58.6668C169.236 58.6668 166.491 57.5502 164.229 55.317C161.968 53.0838 160.837 50.3363 160.837 47.0746C160.837 43.8128 161.968 41.0654 164.229 38.8322C166.491 36.5988 169.236 35.4823 172.467 35.4823C175.725 35.4823 178.472 36.5988 180.704 38.8322C182.965 41.0654 184.096 43.8128 184.096 47.0746C184.096 50.3363 182.965 53.0838 180.704 55.317C178.472 57.5502 175.725 58.6668 172.467 58.6668ZM167.576 52.0552C168.899 53.3776 170.528 54.0387 172.467 54.0387C174.404 54.0387 176.035 53.3776 177.356 52.0552C178.677 50.733 179.339 49.0727 179.339 47.0746C179.339 45.0764 178.677 43.4162 177.356 42.0938C176.035 40.7715 174.404 40.1103 172.467 40.1103C170.528 40.1103 168.899 40.7715 167.576 42.0938C166.255 43.4162 165.595 45.0764 165.595 47.0746C165.595 49.0727 166.255 50.733 167.576 52.0552Z"/>
    <path fill="#f8f7f3" d="M203.243 36.0549H208V58.0935H203.243V55.2725C201.804 57.5352 199.528 58.6665 196.415 58.6665C193.889 58.6665 191.848 57.8584 190.292 56.2423C188.735 54.6261 187.957 52.4076 187.957 49.5867V36.0549H192.715V49.1017C192.715 50.7473 193.155 52.0109 194.036 52.8924C194.917 53.774 196.121 54.2148 197.648 54.2148C199.323 54.2148 200.673 53.7005 201.701 52.672C202.728 51.6141 203.243 50.0127 203.243 47.8676V36.0549Z"/>
    <path fill="#f8f7f3" fill-rule="evenodd" clip-rule="evenodd" d="M19.7725 7.87497C17.4119 12.5745 17.286 17.9727 19.3633 22.5771C16.9712 19.5128 14.7837 16.512 14.0283 12.5269C13.3831 9.17688 13.2257 5.19176 14.4217 0C9.60603 8.3354 9.84209 15.48 13.8552 21.2116C17.9312 27.0225 24.4151 30.8331 33.0708 34.7705C32.6481 34.3673 32.162 33.9372 31.6288 33.4653C29.2436 31.3549 25.9187 28.4129 23.1404 23.3391C20.8584 19.1635 20.0401 14.5275 19.7725 7.87497ZM18.6687 29.4519L18.6692 29.4516C11.7589 25.6463 8.81208 22.1036 7.16601 20.1247C7.09513 20.0395 7.02667 19.9572 6.9604 19.8779C4.9932 28.6419 10.7846 30.5631 14.6089 30.8171H14.6357L14.6353 30.8172H14.6083C9.16299 33.1669 5.74792 35.9455 3.07252 40.4068C-1.00352 47.1704 -0.137947 52.902 0.711884 55.8551C1.54597 58.7288 4.11121 62.7299 5.70071 64C0.963687 53.0608 2.80499 46.5353 5.73219 42.0739C8.29741 38.1523 11.3033 35.5961 16.4809 33.4528C17.016 33.2304 17.5984 33.0081 18.2279 32.77C18.3155 32.8143 18.4099 32.8584 18.5112 32.9059C18.628 32.9605 18.7539 33.0195 18.8888 33.0876C22.776 34.9135 27.2927 36.8187 30.5976 38.2L30.7551 38.2635L29.5117 39.5495C29.1969 39.8829 28.7405 40.0257 28.3 39.9464C26.6003 39.6448 24.3497 39.5812 23.2639 39.5812C13.0974 39.5812 7.9984 43.4711 6.50333 49.1551C5.5276 52.8703 6.81808 56.7443 8.94265 59.3163C11.6023 62.5393 15.9459 63.9841 20.1007 63.9841H28.1425C24.8219 62.2695 21.6429 60.2055 19.7229 58.0303C17.6456 55.6805 15.9931 52.4416 16.5912 48.8216C17.0948 45.7097 19.3452 42.9631 22.8861 42.7408H23.2796C23.9564 42.7408 24.6488 42.7725 25.3097 42.8201H25.3571C26.6947 42.9313 28.0324 43.1536 29.2284 43.4711C30.456 43.7887 31.7623 43.4235 32.6435 42.5027L37.3333 37.6443L36.5464 37.3585C36.5333 37.3519 36.3292 37.2663 35.9708 37.1159C33.7388 36.1795 25.524 32.7331 20.1951 30.2297C19.6757 29.9916 19.1565 29.7217 18.6687 29.4519Z"/>
</svg>
