<svg width="64" height="48" viewBox="0 0 64 48" fill="none" xmlns="http://www.w3.org/2000/svg">
    <path fill="#f8f7f3" fill-rule="evenodd" clip-rule="evenodd" d="M7.53995 7.81264H11.4882V40.2931H9.07596V9.91726H7.53995V7.81264ZM10.3046 48C17.6152 48 20.6092 44.0365 20.6092 37.6369V10.291C20.6092 3.87613 17.6408 0 10.3046 0C2.96824 0 0 3.87613 0 10.291L2.755e-05 37.6369C2.755e-05 44.0517 2.99393 48 10.3046 48Z"/>
    <path fill="#f8f7f3" d="M54.6585 39.9038V26.7377H61.2445C61.63 26.7377 61.9424 26.4304 61.9424 26.0511V20.0004C61.9424 19.6211 61.63 19.3137 61.2445 19.3137H54.6585V8.08581H63.1621C63.5476 8.08581 63.8602 7.77841 63.8602 7.3992V1.29244C63.8602 0.913236 63.5476 0.605835 63.1621 0.605835H46.9778C46.5923 0.605835 46.2799 0.913236 46.2799 1.29244V46.705C46.2799 47.0843 46.5923 47.3917 46.9778 47.3917H63.3021C63.6876 47.3917 64 47.0843 64 46.705V40.5903C64 40.211 63.6876 39.9038 63.3021 39.9038H54.6585Z"/>
    <path fill="#f8f7f3" d="M22.6606 46.705C22.6606 47.0843 22.9732 47.3917 23.3587 47.3917H28.9009C29.2865 47.3917 29.599 47.0843 29.599 46.705V22.1888H30.2334L36.1389 46.8624C36.2132 47.1724 36.4945 47.3917 36.8184 47.3917H43.5348C43.9203 47.3917 44.2327 47.0843 44.2327 46.705V1.29244C44.2327 0.913238 43.9203 0.605835 43.5348 0.605835H37.9926C37.607 0.605835 37.2945 0.913236 37.2945 1.29244V23.326H36.6875L31.4446 1.137C31.3712 0.825974 31.0895 0.605835 30.7648 0.605835H23.3587C22.9732 0.605835 22.6606 0.913236 22.6606 1.29244V46.705Z"/>
</svg>
