<svg width="118" height="48" viewBox="0 0 118 48" fill="none" xmlns="http://www.w3.org/2000/svg">
<path d="M29.0166 0.585449H28.4671C25.9646 2.39781 23.8797 3.449 20.7344 3.449V4.00796C22.4966 4.00796 23.1313 5.8052 23.1313 7.37349V22.4637C23.1313 24.1478 22.3573 25.3223 20.2072 25.3223V25.7777H31.9004V25.3165C30.0997 25.3165 29.0166 24.2808 29.0166 22.2261V0.585449Z" fill="white"/>
<path fill-rule="evenodd" clip-rule="evenodd" d="M7.9973 0.644496H8.54677V11.0683C9.04146 10.5973 10.5736 9.65518 12.7444 9.65518C17.2343 9.65518 20.3125 13.7185 20.3125 17.8563C20.3125 21.4944 18.0299 26.0101 13.0131 26.1278C9.52398 26.1278 7.71164 23.8003 7.71164 23.8003L3.2663 25.8345H2.66152V7.43253C2.66152 5.78483 2.02679 4.06701 0.264648 4.06701V3.50804C3.40987 3.50804 5.49484 2.45686 7.9973 0.644496ZM13.7867 25.5848C15.3787 25.1423 15.4892 21.5003 14.3743 17.4727C13.2594 13.4451 11.5075 10.4932 9.89354 10.9418C8.27962 11.3904 8.21856 15.1034 9.33344 19.131C10.4483 23.1586 12.3283 25.9902 13.7867 25.5848Z" fill="white"/>
<path d="M73.2913 9.53818H73.8407C73.8407 9.53818 73.8342 11.1568 73.8379 11.4792C75.3798 9.78834 77.2948 9.58017 78.6105 9.58017C79.9261 9.58017 83.5939 9.79882 84.717 12.4006H84.8831C85.3754 11.1426 86.896 9.60668 89.7315 9.60668C92.9924 9.60668 96.0247 11.0293 96.5308 15.3728C96.6658 16.3376 96.8418 17.6996 97.0151 19.041C97.2653 20.9771 97.51 22.8705 97.6179 23.4652C97.8462 24.7237 98.583 25.3327 99.0156 25.3327H99.5164V25.8767H89.1292V25.318H89.6501C90.0148 25.318 91.4304 24.5024 91.4304 23.1484C91.4585 21.0106 91.1647 18.2113 90.841 15.1266L90.7826 14.5694C90.5824 12.6557 89.544 10.8858 88.1249 10.8858C87.0451 10.8858 85.8948 11.3937 85.6357 13.6962C85.6259 14.5601 85.6126 15.6875 85.5988 16.8549C85.5675 19.5031 85.5338 22.3564 85.5338 22.8031C85.5338 24.0566 86.3989 25.3226 87.4631 25.3226H87.8365V25.8776H77.4245V25.3226H78.0718C78.8641 25.3226 79.6484 23.8797 79.6484 22.6335V13.7181C79.6484 12.8323 78.9342 10.8286 76.656 10.8286C74.8058 10.8286 73.8342 12.5501 73.8342 14.3259C73.8342 16.3848 73.8263 19.6033 73.8263 19.6033V22.1556C73.8263 23.8073 74.6749 25.3226 75.7047 25.3226H76.1363V25.8776H65.6371V25.3172C67.1794 25.3172 67.941 24.2302 67.941 22.5461C67.941 22.5461 67.9555 23.2196 67.9555 16.3014C67.9555 14.7331 67.3122 12.9551 65.5501 12.9551L65.5501 12.3956C68.6953 12.3956 71.02 11.2739 73.2913 9.53818Z" fill="white"/>
<path fill-rule="evenodd" clip-rule="evenodd" d="M49.1748 18.4296C48.8748 22.7314 45.2973 26.1278 40.9281 26.1278C36.3623 26.1278 32.661 22.4188 32.661 17.8436C32.661 13.2684 36.3623 9.55942 40.9281 9.55942C45.3197 9.55942 48.9114 12.9907 49.1792 17.3238C49.4792 13.022 53.0568 9.6256 57.4259 9.6256C61.9917 9.6256 65.693 13.3346 65.693 17.9098C65.693 22.485 61.9917 26.194 57.4259 26.194C53.0344 26.194 49.4426 22.7627 49.1748 18.4296ZM42.9039 25.1281C44.5628 24.6763 44.5627 21.1623 43.4762 17.1565C42.0496 11.8971 40.3203 10.1617 38.9338 10.5394C37.5472 10.917 37.3395 14.553 38.426 18.5588C39.5125 22.5645 41.3587 25.549 42.9039 25.1281ZM59.974 17.2227C61.0606 21.2285 61.0607 24.7424 59.4018 25.1943C57.8565 25.6151 56.0103 22.6307 54.9238 18.6249C53.8373 14.6192 54.045 10.9832 55.4316 10.6056C56.8182 10.2279 58.5475 11.9632 59.974 17.2227Z" fill="white"/>
<path fill-rule="evenodd" clip-rule="evenodd" d="M108.577 24.1723C108.551 24.1839 108.523 24.1972 108.492 24.2125C108.382 24.28 108.163 24.4697 107.826 24.8039C107.516 25.1361 107.101 25.6375 106.578 26.3108C106.056 26.9826 105.388 27.9153 104.575 29.1103C104.129 29.786 103.696 30.4358 103.276 31.0597C102.883 31.6824 102.529 32.2531 102.215 32.7717L102.214 32.7727C101.847 33.3708 101.505 33.9298 101.19 34.4498C101.084 34.6249 100.925 34.7325 100.72 34.7325C100.65 34.7325 100.57 34.7172 100.502 34.6642C100.39 34.6061 100.292 34.531 100.231 34.4303C100.163 34.3182 100.153 34.1936 100.19 34.0722C100.506 32.5095 100.914 30.792 101.413 28.9198C101.912 27.045 102.438 25.1702 102.99 23.2953C103.542 21.4211 104.095 19.6117 104.647 17.8674C105.066 16.5218 105.456 15.2963 105.815 14.191C103.819 14.5481 101.427 15.0019 98.6375 15.5523L96.6203 15.9979C96.0024 17.8662 95.3719 19.7848 94.7287 21.7536C94.0744 23.7566 93.4462 25.7336 92.8443 27.6845C92.2423 29.6353 91.6797 31.521 91.1563 33.3415L91.1554 33.3445C90.606 35.1387 90.1352 36.7632 89.7431 38.2182L89.7425 38.2204C89.3241 39.7019 88.9977 40.9608 88.7629 41.9976C88.6215 42.6224 88.5241 43.1329 88.4689 43.5319C88.5386 43.43 88.6152 43.3049 88.6988 43.1553L88.6999 43.1534C88.7711 43.0296 88.8741 42.9357 89.0116 42.8936C89.1448 42.8529 89.2871 42.868 89.4271 42.9144L89.4532 42.9231L89.4756 42.939C89.5928 43.0222 89.6827 43.1317 89.7152 43.2718C89.7475 43.4108 89.7163 43.5499 89.6512 43.6793L89.6475 43.6868L89.6431 43.6939C89.3022 44.2411 89.036 44.6386 88.8462 44.8811L88.8425 44.8859L88.8385 44.8904C88.6116 45.144 88.3564 45.3029 88.0734 45.3029C88.0192 45.3029 87.9726 45.2866 87.9339 45.2638H87.8474L87.8194 45.2545C87.6905 45.2118 87.584 45.1137 87.4949 44.9957C87.4255 44.9036 87.3946 44.7787 87.3804 44.6515C87.3657 44.5204 87.3662 44.3606 87.3792 44.1754C87.3801 43.8193 87.4482 43.2743 87.5785 42.549C87.7107 41.8135 87.9476 40.7937 88.2882 39.4917C88.6033 38.1869 89.0492 36.5448 89.6255 34.5663C90.202 32.587 90.9355 30.1656 91.826 27.3022L91.8264 27.301C92.481 25.245 93.1226 23.2281 93.751 21.2503C94.3392 19.399 94.8817 17.7299 95.3783 16.2428C93.634 16.6097 91.9714 16.965 90.3904 17.3087L90.3872 17.3094C88.6861 17.6475 87.195 17.9595 85.9136 18.2454C84.6309 18.5316 83.6108 18.7656 82.8527 18.9474L82.8458 18.9491C82.4529 19.0272 82.1545 19.0857 81.951 19.1249C81.8494 19.1444 81.7708 19.1592 81.7158 19.1691C81.6975 19.1725 81.6814 19.1753 81.6677 19.1776C81.6264 19.2051 81.5749 19.2257 81.5138 19.2257C81.3912 19.2257 81.2738 19.1948 81.1759 19.1191C81.0786 19.0439 81.018 18.9379 80.984 18.8195L80.9825 18.8142L80.9813 18.8088C80.9488 18.6637 80.9537 18.5137 81.0353 18.3863C81.1167 18.2591 81.2507 18.1917 81.3958 18.1596L81.4153 18.1553H81.4234L81.4305 18.154C81.4442 18.1515 81.4645 18.1476 81.4918 18.142C81.5464 18.1308 81.6257 18.1139 81.7302 18.0912C81.939 18.0458 82.246 17.9776 82.6515 17.8866C83.438 17.7042 84.4988 17.47 85.8333 17.1839C87.1443 16.8712 88.6772 16.5327 90.4318 16.1683C92.1286 15.8106 93.9136 15.4403 95.7868 15.0576C96.2166 13.7005 96.5592 12.6159 96.8146 11.8037L96.8162 11.7987C96.9603 11.3821 97.0721 11.0653 97.1512 10.849C97.1907 10.7411 97.2226 10.6568 97.2466 10.5971C97.2585 10.5675 97.2693 10.5419 97.2786 10.5218C97.2832 10.5119 97.2885 10.501 97.2942 10.4907L97.2946 10.4901L97.2957 10.4881C97.339 10.377 97.4165 10.2886 97.5169 10.2221C97.6562 10.1298 97.8109 10.1368 97.9518 10.2C98.0948 10.232 98.2349 10.2981 98.3091 10.4333C98.387 10.5752 98.3599 10.7326 98.3008 10.8694C98.0913 11.5454 97.8559 12.2341 97.5946 12.9354C97.3914 13.5415 97.1881 14.1672 96.9847 14.8123C97.2162 14.7634 97.4417 14.7208 97.6611 14.6844L98.6828 14.45C101.616 13.8774 104.105 13.4088 106.149 13.0442C106.163 13.0417 106.178 13.0391 106.192 13.0365C106.618 11.7248 106.97 10.6664 107.25 9.86174C107.394 9.4456 107.502 9.13079 107.574 8.917C107.61 8.80997 107.637 8.72906 107.655 8.67371C107.663 8.6467 107.669 8.62699 107.673 8.61378V8.60441L107.683 8.57552C107.815 8.18297 107.973 7.73878 108.158 7.2431C108.343 6.74407 108.542 6.27075 108.755 5.82322C108.968 5.37493 109.183 4.98925 109.399 4.66759L109.402 4.66334L109.405 4.65926C109.529 4.49603 109.651 4.36327 109.771 4.26623C109.891 4.16982 110.019 4.10096 110.155 4.08184L110.167 4.08008H110.18C110.407 4.08008 110.603 4.16331 110.723 4.35488C110.841 4.51627 110.86 4.73947 110.833 4.97806C110.804 5.22675 110.72 5.5316 110.586 5.88842C110.348 6.57078 110.043 7.31698 109.674 8.12676L109.673 8.12886C109.304 8.91154 108.922 9.66835 108.527 10.3993C108.16 11.126 107.894 11.6256 107.733 11.8924L107.68 11.98H107.67C107.584 12.2488 107.493 12.5309 107.399 12.8261C108.92 12.5635 110.22 12.3496 111.299 12.1847C112.661 11.9764 113.739 11.8455 114.532 11.7928C115.318 11.7147 115.918 11.6875 116.326 11.7145C116.54 11.7278 116.719 11.7479 116.861 11.7762C116.985 11.8009 117.102 11.8354 117.188 11.8911C117.309 11.9407 117.416 11.9975 117.491 12.0668C117.595 12.1397 117.67 12.2384 117.708 12.3608C117.746 12.485 117.742 12.6202 117.711 12.758L117.706 12.7802L117.696 12.8006C117.632 12.9286 117.542 13.0355 117.417 13.0972C117.292 13.1598 117.154 13.1645 117.017 13.1305L117.01 13.1288L117.003 13.1266C116.905 13.0939 116.813 13.0433 116.745 12.9649C116.709 12.9231 116.683 12.8767 116.666 12.8274C116.616 12.8188 116.548 12.8104 116.458 12.8035C116.294 12.791 116.077 12.7845 115.804 12.7845C115.294 12.7845 114.376 12.8739 113.04 13.0561L113.037 13.0565C111.732 13.2121 109.929 13.4848 107.625 13.875C107.432 13.9079 107.233 13.9419 107.029 13.9771C106.826 14.6115 106.606 15.2954 106.371 16.0288L106.371 16.0297C105.846 17.6411 105.308 19.3698 104.756 21.2158L104.756 21.2165C104.205 23.0367 103.653 24.8959 103.102 26.7942C102.69 28.2821 102.319 29.7058 101.988 31.0652C102.138 30.8233 102.296 30.5725 102.46 30.3127L102.463 30.3081C102.883 29.6834 103.317 29.0458 103.764 28.3951C104.711 26.9887 105.49 25.9163 106.1 25.1809L106.1 25.1804C106.732 24.4243 107.239 23.881 107.62 23.5582C107.807 23.3988 107.974 23.2746 108.117 23.1893C108.25 23.1105 108.385 23.0515 108.51 23.0473C108.698 23.0214 108.866 23.0188 109.001 23.0523L109.01 23.0545L109.018 23.0576C109.192 23.12 109.336 23.2205 109.445 23.3614C109.553 23.5015 109.619 23.6724 109.649 23.8657C109.704 24.2195 109.705 24.5624 109.65 24.8936C109.522 26.3574 109.804 27.2357 110.398 27.6438C110.604 27.7796 110.848 27.8618 111.133 27.8863C111.46 27.886 111.774 27.861 112.075 27.8118C112.382 27.7356 112.664 27.6596 112.919 27.5838C113.171 27.4839 113.371 27.3973 113.52 27.324C113.633 27.2526 113.762 27.2275 113.894 27.2687C114.033 27.3043 114.151 27.3785 114.231 27.4982L114.234 27.5027C114.317 27.6338 114.362 27.7854 114.313 27.9401C114.267 28.0895 114.148 28.195 114.01 28.2709L113.97 28.2931H113.945L113.939 28.2951C113.92 28.3017 113.892 28.3125 113.854 28.3284C113.778 28.3596 113.67 28.407 113.527 28.4711C113.251 28.6076 112.911 28.7279 112.511 28.8336L112.506 28.835L112.5 28.8361C112.093 28.9168 111.648 28.9566 111.165 28.9566C110.681 28.9566 110.227 28.8152 109.805 28.5369C108.799 27.8819 108.421 26.5931 108.58 24.7757L108.581 24.7683L108.582 24.761C108.607 24.6105 108.619 24.4915 108.619 24.4017C108.619 24.3074 108.606 24.2644 108.599 24.2514L108.588 24.2291L108.583 24.2045L108.577 24.1723ZM113.955 28.2898C113.958 28.2891 113.957 28.2893 113.954 28.29L113.955 28.2898ZM107.676 8.60167C107.677 8.5992 107.677 8.59895 107.676 8.60042L107.676 8.60167Z" fill="#D8FF34"/>
<path d="M80.3809 30.1038C79.795 30.691 79.209 30.9724 78.643 30.8147L78.6385 30.8135L78.6341 30.812C78.2526 30.6844 77.9864 30.3694 77.8182 29.9195C77.655 29.483 77.5483 28.9705 77.4953 28.3848C77.4424 27.8018 77.4294 27.1678 77.4556 26.483C77.4818 25.7999 77.5342 25.1425 77.6129 24.5109L77.6133 24.5077C77.6651 24.1443 77.6895 23.881 77.6895 23.712C77.6895 23.693 77.6894 23.6746 77.6892 23.6568C77.4842 23.8909 77.2188 24.2301 76.8914 24.6793C76.4241 25.3564 75.8918 26.1378 75.2945 27.0234L75.2919 27.0273C74.9029 27.5737 74.4747 28.1852 74.0076 28.862C73.564 29.5424 73.0687 30.2615 72.5217 31.0192C71.8975 31.88 71.4218 32.4779 71.0985 32.8022C70.9372 32.9639 70.7867 33.0915 70.6474 33.1798C70.5107 33.2664 70.3684 33.3256 70.2276 33.3256C70.1318 33.3256 70.0237 33.2835 69.9211 33.2327C69.8413 33.2021 69.7813 33.1446 69.7369 33.0822C69.692 33.0192 69.6568 32.9427 69.6281 32.8588C69.5713 32.7348 69.5635 32.57 69.5765 32.3945C69.5905 32.2049 69.6318 31.9696 69.6978 31.6915C69.8311 31.1033 70.1215 30.245 70.564 29.1223L70.5648 29.1203C71.0341 27.9696 71.7369 26.3769 72.6725 24.3434C72.7311 24.1984 72.8237 24.0587 72.978 24.0071C73.1314 23.9558 73.2785 24.0128 73.3983 24.0974C73.5235 24.1497 73.6293 24.2351 73.6834 24.3652C73.7392 24.4997 73.725 24.6469 73.6783 24.7874L73.675 24.7973L73.6707 24.8067C73.3329 25.5363 72.9952 26.279 72.6575 27.0347L72.6565 27.037C72.3195 27.765 72.0085 28.4668 71.7235 29.1424C71.4648 29.7912 71.2453 30.3872 71.0648 30.9304L71.0639 30.933C71.0235 31.049 70.9856 31.1596 70.9505 31.2648C71.1378 31.027 71.3677 30.7292 71.6406 30.3713C72.1847 29.6176 72.6766 28.9033 73.1165 28.2285L73.1192 28.2244C73.5874 27.546 74.0169 26.9326 74.4074 26.3841C75.0055 25.5234 75.4998 24.8188 75.8903 24.2704C76.2807 23.7221 76.6097 23.299 76.8764 23.0044C77.1335 22.6952 77.3602 22.4741 77.5522 22.3761C77.7649 22.2553 77.9871 22.2129 78.2042 22.2855C78.5408 22.3981 78.6907 22.7138 78.7192 23.1115C78.7462 23.4653 78.7323 23.9722 78.6801 24.6266L78.6796 24.6322C78.4983 26.2694 78.4608 27.5306 78.5622 28.423C78.6264 28.8734 78.7021 29.2099 78.7864 29.4394C78.8286 29.5543 78.8704 29.6351 78.9089 29.6882C78.9296 29.7168 78.9469 29.734 78.96 29.7444L78.9741 29.7421C79.0103 29.7361 79.0601 29.7267 79.1243 29.7138C79.2036 29.6979 79.3414 29.6227 79.5459 29.4433C79.7666 29.2465 80.0436 28.932 80.3782 28.4933C80.7114 28.0304 81.1237 27.3843 81.6159 26.5529C81.8755 26.1102 82.1091 25.7067 82.3166 25.3425C82.5141 24.9957 82.6998 24.661 82.8736 24.3382C82.831 23.7695 82.9582 23.1823 83.2449 22.5798C83.557 21.8494 83.819 21.2841 84.0303 20.8866L84.0323 20.883C84.2668 20.4648 84.4529 20.1575 84.589 19.9663C84.6572 19.8706 84.7223 19.79 84.7841 19.728C84.8362 19.6757 84.8973 19.625 84.9662 19.5957C85.0494 19.5424 85.1454 19.498 85.2455 19.498C85.4463 19.498 85.6236 19.568 85.7434 19.7281L85.7491 19.7357L85.7539 19.7439C85.8195 19.8535 85.836 19.987 85.8285 20.1225C85.821 20.259 85.7879 20.4165 85.7344 20.592C85.6533 20.9157 85.5202 21.3014 85.3372 21.7473L85.3356 21.751C85.278 21.8832 85.2196 22.0266 85.1586 22.1765C85.0251 22.5042 84.879 22.8631 84.7 23.2043C84.6706 23.2666 84.6421 23.3271 84.6144 23.3861L84.5415 23.5413C84.3888 23.8667 84.252 24.158 84.0834 24.4971C84.0938 24.5401 84.0866 24.5856 84.0796 24.6292C84.0717 24.6788 84.0642 24.726 84.0834 24.7645L84.2356 25.0699C84.547 25.5703 85.0663 25.9635 85.8158 26.2392C86.5865 26.5226 87.3566 26.7415 88.1261 26.8961C88.8999 27.0253 89.5803 27.1024 90.1683 27.128L91.1006 27.167C91.2445 27.1677 91.3856 27.2045 91.4897 27.3089C91.5947 27.4143 91.6312 27.5573 91.6312 27.703C91.6312 27.8487 91.5947 27.9917 91.4897 28.0971C91.3847 28.2025 91.242 28.239 91.0966 28.239H90.5429L90.5352 28.2384C90.2255 28.2125 89.8372 28.1865 89.3701 28.1605L89.365 28.1602L89.36 28.1597C88.8868 28.1069 88.3625 28.028 87.7871 27.923C87.207 27.8172 86.6273 27.6718 86.048 27.4869L86.0431 27.4854L86.0383 27.4835C85.4847 27.272 84.9696 27.0336 84.4932 26.7681L84.4865 26.7644C84.0092 26.4719 83.6307 26.1112 83.3554 25.6816C83.1773 26.0303 83.015 26.3308 82.8685 26.5826L82.865 26.5888C82.6798 26.8806 82.5827 27.0395 82.5621 27.0809L82.5592 27.0867L82.5558 27.0924C81.7224 28.5031 80.9974 29.5117 80.3809 30.1038Z" fill="#D8FF34"/>
<path fill-rule="evenodd" clip-rule="evenodd" d="M67.8091 28.251L67.8076 28.2514C67.0923 28.433 66.4471 28.5092 65.8705 28.4837C65.3153 28.4581 64.8285 28.369 64.4081 28.2191C64.0572 28.0629 63.7572 27.8986 63.5066 27.7268C63.7959 26.9207 63.9916 26.1595 64.0924 25.4435C64.1991 24.6852 64.1493 24.0407 63.9237 23.5235C63.7946 23.2044 63.6001 22.9545 63.336 22.7859C63.0722 22.6176 62.7529 22.5392 62.3885 22.5392C61.9951 22.5392 61.653 22.6322 61.3746 22.8308C61.0989 23.0276 60.9013 23.3167 60.7745 23.683C60.7504 23.7333 60.7246 23.7974 60.7221 23.8619L60.7213 23.8644L60.7209 23.8654C60.3161 24.1265 59.9122 24.5614 59.5062 25.1536C59.0839 25.7435 58.6891 26.4119 58.3216 27.1582C57.9536 27.8789 57.6382 28.6261 57.3754 29.3998C57.1127 30.147 56.9399 30.8194 56.8597 31.416C56.729 32.3193 56.7827 33.0165 57.0858 33.4485C57.3335 33.8114 57.624 34.0581 57.9636 34.1537C58.07 34.1886 58.2094 34.2013 58.3684 34.2013C59.105 34.2013 59.9072 33.6548 60.7699 32.6726L60.7733 32.6686C61.1975 32.1572 61.6194 31.5408 62.0395 30.821C62.4242 30.1619 62.7757 29.4696 63.094 28.7443C63.4043 28.9411 63.7585 29.1176 64.1556 29.2744L64.1612 29.2766L64.167 29.2785C64.6798 29.4429 65.2558 29.5375 65.8934 29.5645C66.564 29.5917 67.2968 29.5099 68.09 29.3219C68.8913 29.1321 69.7787 28.7679 70.751 28.2343L70.7528 28.2332C70.8909 28.1554 71.0078 28.0479 71.0531 27.8985C71.0996 27.7451 71.0568 27.5939 70.9751 27.4613L70.9722 27.4567C70.8928 27.3358 70.7756 27.2595 70.6364 27.2227C70.502 27.1797 70.371 27.2066 70.2574 27.2802C69.3592 27.7486 68.5433 28.0711 67.8091 28.251ZM57.9254 31.588L57.9258 31.5849C58.0019 31.0184 58.1545 30.4101 58.3852 29.7593C58.6171 29.1054 58.8745 28.478 59.1575 27.8769C59.4673 27.2742 59.7766 26.7248 60.0854 26.2284C60.2991 25.8848 60.5047 25.5946 60.7019 25.3564C60.7825 25.7806 60.9256 26.2103 61.1296 26.6453L61.1311 26.6484C61.3862 27.1664 61.7475 27.6448 62.2121 28.0841C61.9379 28.7989 61.6059 29.4903 61.2161 30.1585C60.8042 30.8379 60.3806 31.4372 59.9455 31.9569C59.5473 32.4265 59.2028 32.7514 58.912 32.9421C58.6211 33.1329 58.4144 33.1701 58.2701 33.1294C58.0614 33.0504 57.9318 32.891 57.8874 32.6099C57.863 32.2553 57.8759 31.9148 57.9254 31.588ZM63.0271 25.3074L63.0261 25.3151C62.9605 25.8257 62.8284 26.3779 62.6284 26.972C62.3092 26.6056 62.08 26.2255 61.937 25.8319C61.7838 25.3873 61.71 25.0004 61.7085 24.6684C61.7886 24.6471 61.8627 24.6085 61.9239 24.5463C62.0285 24.4402 62.0646 24.2963 62.0646 24.1497C62.0646 24.0456 62.0432 23.9439 61.9885 23.855C61.9767 23.8358 61.9638 23.8179 61.9497 23.8012C62.077 23.676 62.2219 23.6202 62.3885 23.6202C62.5309 23.6202 62.644 23.6506 62.7347 23.7039C62.8233 23.756 62.9007 23.8359 62.9644 23.952C63.0985 24.2758 63.1274 24.7221 63.0271 25.3074Z" fill="#D8FF34"/>
<path fill-rule="evenodd" clip-rule="evenodd" d="M28.2788 44.8066C27.9548 45.2406 27.0518 46.4501 27.8463 47.0874C28.0433 47.2894 28.6296 47.415 28.8906 47.415C29.2349 47.3335 29.6368 46.9855 30.2459 46.388C31.8896 44.7023 33.3221 42.8717 34.6523 40.9163C34.9833 40.4563 35.2278 40.0822 35.4546 39.7352C35.7901 39.2216 36.087 38.7673 36.5683 38.182C37.5655 36.9692 38.6172 36.1436 39.5643 35.4001C39.8639 35.1649 40.1531 34.9379 40.4267 34.7095C41.0755 34.1524 41.7215 33.6615 42.3532 33.1814C42.8301 32.8189 43.2988 32.4626 43.7545 32.0887C44.5744 31.4119 45.3092 30.8286 46.0303 30.2561L46.0308 30.2557C46.2644 30.0703 46.4966 29.8859 46.7298 29.6999C46.8363 29.6173 46.9782 29.5187 47.1419 29.4051C47.5866 29.0964 48.1915 28.6765 48.6798 28.1625L48.6152 28.418C48.5066 28.8467 48.3947 29.2885 48.293 29.7077C48.2527 29.8942 48.2116 30.0775 48.1709 30.2592C48.005 30.9987 47.8451 31.7118 47.7744 32.5027C47.7358 32.935 48.0257 33.3591 48.4129 33.3337C48.6795 33.3162 48.7729 33.0237 48.8258 32.858C48.8283 32.8502 48.8307 32.8427 48.833 32.8355C48.8349 32.8298 48.8367 32.8242 48.8385 32.8189C49.1445 31.8479 49.5344 30.8576 49.9934 29.7077C50.4524 28.5323 51.0193 27.3421 51.5293 26.3456C52.0648 25.349 52.4992 24.68 53.0347 24.0156C53.5702 23.3257 54.177 22.9062 54.4891 22.9062C54.7186 22.9062 54.9304 22.7843 54.9304 22.5543C54.9304 22.3244 54.4976 21.9029 54.2681 21.9029C53.8346 21.9029 53.4359 22.0214 53.0024 22.3791C52.5689 22.7369 52.2027 23.0961 51.7947 23.6839C51.3114 24.3942 50.892 25.0767 50.4233 25.9524L50.4757 25.7667C50.5426 25.5303 50.591 25.3589 50.6768 25.0328C50.7978 24.5729 50.3149 24.3307 50.1109 24.2541C49.8814 24.203 49.6779 24.4882 49.6167 24.6415C49.3569 25.2925 49.2054 25.9656 49.0922 26.4685C49.0516 26.6491 49.0159 26.8078 48.9818 26.9356C48.9315 27.152 48.8729 27.3918 48.8097 27.6458C48.6911 27.3696 48.3873 27.1006 48.2085 27.2081C47.2238 27.8001 45.6912 29.0351 44.8884 29.6819C44.7378 29.8033 44.6129 29.9039 44.5221 29.9758C44.1128 30.3091 43.6233 30.6698 43.1167 31.043C42.5091 31.4907 41.8765 31.9568 41.3279 32.4158C40.6475 32.985 40.3141 33.2873 39.8585 33.7004L39.8575 33.7013C39.6395 33.8989 39.3934 34.122 39.0681 34.4118C39.6717 33.4276 39.865 33.0508 40.0747 32.6418C40.2238 32.3512 40.3812 32.0442 40.7002 31.4914C40.9396 31.0681 41.1652 30.6811 41.368 30.3333C41.8158 29.5652 42.1523 28.988 42.2799 28.6328C42.3874 28.3848 42.3007 27.8265 42.1064 27.6272C41.8151 27.3285 41.2688 27.0551 40.2096 27.3266C40.2096 27.186 40.1834 27.031 40.1359 26.7491C40.121 26.6609 40.104 26.5604 40.0851 26.444C40.0057 25.9552 39.5505 25.67 39.1268 25.4256C38.0411 24.8282 36.1877 25.4624 33.4338 27.9065C32.56 28.6941 31.9559 29.2474 31.7705 29.5733C31.5587 29.8992 31.5996 30.2988 31.7055 30.4889C31.7849 30.6519 32.0842 30.942 32.4117 30.942C33.0105 30.942 33.4176 30.7909 33.8749 30.6211C33.9923 30.5776 34.1131 30.5327 34.2412 30.4889L34.4155 30.4295C34.9391 30.251 35.5695 30.0362 36.3067 29.7436C36.5803 29.6383 36.8761 29.5346 37.1939 29.423C37.3682 29.3619 37.5491 29.2985 37.7366 29.2311C38.0875 29.1112 38.4406 29.0007 38.7797 28.8945C38.978 28.8325 39.1716 28.7719 39.3572 28.7118L39.3788 28.7048C39.7852 28.5731 40.7807 28.2506 41.114 28.3178C41.114 28.3721 41.0815 28.4825 41.055 28.5096C40.9823 28.6885 40.9311 28.7793 40.8471 28.9282C40.7781 29.0504 40.6869 29.2119 40.5436 29.4936C40.3412 29.8741 40.0958 30.2998 39.8212 30.7763C39.6646 31.0479 39.4984 31.3362 39.3254 31.6418C38.8488 32.4837 38.3676 33.2507 37.7321 34.2555C37.6739 34.349 37.6168 34.441 37.5604 34.532L37.5599 34.5328C37.0262 35.3935 36.5507 36.1604 35.7218 37.126C35.1297 37.8158 34.61 38.2791 34.0492 38.7791C33.733 39.0611 33.4035 39.3548 33.0407 39.7073C32.7979 39.9432 32.5626 40.1694 32.3345 40.3886L32.334 40.3891C31.6171 41.0782 30.9715 41.6987 30.389 42.3372C30.3146 42.4186 30.2403 42.4997 30.1663 42.5805L30.1631 42.584C29.4477 43.365 28.7622 44.1133 28.3548 44.7032C28.3364 44.7295 28.3103 44.7644 28.2788 44.8066ZM30.389 44.4575C29.8271 45.0834 28.933 46.0773 28.827 46.0773C29.3312 45.2178 29.7044 44.799 30.1538 44.2948C30.2468 44.1904 30.3431 44.0824 30.4445 43.9661C31.4836 42.7989 31.6741 42.6212 32.2428 42.0908L32.3687 41.9732C31.6167 43.0658 31.2429 43.5064 30.389 44.4575ZM35.7197 27.562C36.2228 27.1818 36.6391 26.9141 36.9834 26.724C37.3917 26.4847 38.708 25.9368 38.9254 26.305C39.1949 26.7613 39.1422 27.5434 39.0648 27.6272C39.0304 27.6645 38.6691 27.7802 38.162 27.9426C37.5289 28.1453 36.6685 28.4208 35.9334 28.7073C34.7467 29.1455 34.5117 29.2311 33.2758 29.6291C34.0843 28.8377 34.7677 28.23 35.7197 27.562Z" fill="#D8FF34"/>
</svg>
