<svg width="216" height="32" viewBox="0 0 216 32" fill="none" xmlns="http://www.w3.org/2000/svg">
    <path fill="#f8f7f3" d="M26.4131 0.661262L17.6534 24.5072L8.84908 0.661262H0V31.5156H3.2179V3.12962L13.765 31.5156H18.2792L28.782 3.21782V31.5156H34.9494V0.661262H26.4131Z"/>
    <path fill="#f8f7f3" d="M53.6345 27.857C52.115 30.237 49.6567 31.9562 46.0814 31.9562C42.2826 31.9562 38.305 30.193 38.305 25.6531C38.305 21.4215 41.523 19.4382 49.2545 18.1598L53.3662 17.4989V16.2204C53.3662 12.4738 51.8467 10.8871 49.0758 10.8871C46.3495 10.8871 44.9194 12.6943 44.696 15.8677H39.0647C39.5563 11.5483 43.7575 8.68308 49.0758 8.68308C55.3327 8.68308 59.1762 11.5483 59.1315 17.4545L59.0868 26.9311C59.0868 27.6805 59.1762 28.9149 59.3103 31.5155H53.7684L53.6345 27.857ZM53.3662 21.9061V20.0111C47.1986 20.4958 44.2938 22.1712 44.2938 25.2124C44.2938 27.6805 45.9473 29.0471 48.0477 29.0471C50.8187 29.0471 53.3662 26.4024 53.3662 21.9061Z"/>
    <path fill="#f8f7f3" d="M63.5299 9.21223H69.4291V31.5156H63.5299V9.21223Z"/>
    <path fill="#f8f7f3" d="M79.9678 31.5156H74.0686V9.21219H79.7892V13.1351C81.0852 10.4022 83.6776 8.72734 87.1634 8.72734C91.7666 8.72734 95.1187 10.9754 95.1187 17.6309V31.5156H89.2193V17.058C89.2193 13.1351 87.7891 11.5923 85.4205 11.5923C82.7388 11.5923 79.9678 14.281 79.9678 20.8927V31.5156Z"/>
    <path fill="#f8f7f3" d="M97.4274 22.1271H103.416C103.684 26.9314 106.321 29.4438 110.567 29.4438C114.366 29.4438 117.494 27.5485 117.494 24.3748C117.494 21.4658 115.17 20.0114 111.237 18.9535L107.93 18.0718C101.673 16.3971 98.8574 14.105 98.8574 9.47665C98.8574 3.87911 104.444 7.99257e-05 110.656 7.99257e-05C117.405 7.99257e-05 122.232 2.99718 122.768 8.50716H116.824C116.6 4.67243 114.455 2.51254 110.656 2.51254C106.991 2.51254 104.355 4.62812 104.355 7.58133C104.355 9.96171 105.964 11.3721 109.628 12.3419L113.516 13.3555C119.416 14.8984 123.125 17.0581 123.125 22.2594C123.125 28.6505 116.824 31.9562 110.567 31.9562C103.192 31.9562 98.0082 28.6946 97.4274 22.1271Z"/>
    <path fill="#f8f7f3" d="M147.434 31.5156H141.534V9.21219H147.21V14.281C147.478 13.4437 147.881 12.606 148.506 11.7686C149.758 10.0496 151.232 9.12399 153.512 9.12399C154.048 9.12399 154.674 9.16809 155.076 9.21219V13.9726C153.914 13.8403 152.886 13.7521 151.724 13.7521C149.579 13.7521 147.434 14.722 147.434 19.0857V31.5156Z"/>
    <path fill="#f8f7f3" d="M174.169 24.5953C173.365 27.4163 171.175 29.3114 167.912 29.3114C164.828 29.3114 162.651 27.196 161.855 23.6468L172.775 18.6652L172.779 18.6667L177.098 16.6964C175.876 11.5918 171.436 8.72732 166.348 8.72732C160.672 8.72732 154.996 13.003 154.996 20.3197C154.996 28.1214 160.762 32 167.018 32C172.471 32 176.404 29.1353 177.432 24.5953H174.169ZM161.416 19.1164C161.429 16.7789 161.639 13.8093 163.471 12.0587C164.246 11.3175 165.279 10.9753 166.348 10.9753C169.288 10.9753 170.698 13.2212 170.885 16.904L161.541 21.1671C161.511 20.6599 161.416 19.7389 161.416 19.1164Z"/>
    <path fill="#f8f7f3" d="M197.806 24.5953C197.002 27.4163 194.812 29.3114 191.549 29.3114C188.465 29.3114 186.288 27.196 185.492 23.6468L196.412 18.6652L196.416 18.6667L200.735 16.6964C199.513 11.5918 195.073 8.72732 189.985 8.72732C184.309 8.72732 178.633 13.003 178.633 20.3197C178.633 28.1214 184.398 32 190.655 32C196.108 32 200.041 29.1353 201.068 24.5953H197.806ZM185.158 17.9837C185.337 13.5316 186.901 10.9753 189.985 10.9753C192.925 10.9753 194.335 13.2212 194.522 16.904L185.176 21.1677C185.165 20.9187 185.158 20.6663 185.158 20.4079V17.9837Z"/>
    <path fill="#f8f7f3" d="M61.8729 3.53478L66.4798 7.06956L71.0868 3.53478L66.4798 0L61.8729 3.53478Z"/>
    <path fill="#f8f7f3" d="M133.673 0.610424L127.774 3.30055V9.21187H123.975V11.5921H127.774V26.2263C127.774 30.5015 129.874 31.5594 134.21 31.5594C136.579 31.5594 138.009 31.5153 139.081 31.4714V29.1354H136.221C134.523 29.1354 133.629 28.6064 133.629 26.4024L133.673 11.5921H139.081V9.21187H133.673V0.610424Z"/>
    <path fill="#f8f7f3" d="M210.592 0.610424L204.693 3.30055V9.21187H200.894V11.5921H204.693V26.2263C204.693 30.5015 206.793 31.5594 211.129 31.5594C213.497 31.5594 214.928 31.5153 216 31.4714V29.1354H213.14C211.442 29.1354 210.548 28.6064 210.548 26.4024L210.592 11.5921H216V9.21187H210.592V0.610424Z"/>
</svg>
