<svg width="88" height="64" viewBox="0 0 88 64" fill="none" xmlns="http://www.w3.org/2000/svg">
    <path fill="#f8f7f3" d="M82.1196 9.69761C82.1196 8.85294 82.1196 8.14904 82.1196 7.30437C82.1196 6.45969 81.9774 6.17814 80.9822 6.45969C79.9871 6.74125 78.9919 7.02281 77.9968 7.30437C77.4281 7.44515 76.7173 7.44515 76.7173 8.28982C76.7173 10.1199 76.7173 11.9501 76.7173 13.921C76.7173 14.2025 76.8595 14.3433 77.2859 14.3433C77.5703 14.3433 77.9968 14.2025 78.2811 14.2025C79.2763 13.921 80.2714 13.6394 81.2666 13.3579C81.9774 13.2171 82.1196 12.7947 82.1196 12.0909C82.1196 11.2462 82.1196 10.4015 82.1196 9.69761ZM76.8724 27.423C77.5832 27.2822 78.294 27.1414 79.0049 27.0006C79.8578 26.8598 80.7108 26.5783 81.5638 26.2967C81.8481 26.1559 82.1325 25.7336 82.1325 25.3113C82.2746 24.8889 82.1325 24.3258 82.1325 23.9035C82.1325 23.0588 82.4168 22.6365 83.2698 22.3549C84.5493 21.9326 85.8288 21.651 87.1082 21.3695C87.6769 21.2287 87.9612 21.5102 87.9612 22.0734C87.9612 23.6219 87.9612 25.3113 87.8191 26.8598C87.5347 28.9715 86.1131 30.3793 84.1228 31.224C80.7108 32.491 77.1567 33.8988 73.7448 35.3066C71.4701 36.1513 69.3376 36.9959 67.063 37.9814C64.7884 38.826 62.3716 39.8115 60.0969 40.6562C56.9693 41.9232 53.6995 43.1902 50.5719 44.4572C48.2973 45.3019 46.0226 46.2873 43.748 47.132C40.6204 48.399 37.4927 49.666 34.2229 50.7923C31.9483 51.7777 29.6737 52.6224 27.399 53.6078C24.2714 54.8748 21.0016 56.0011 17.874 57.2681C15.4572 58.2535 12.8982 59.239 10.4814 60.2244C7.53473 61.4787 4.54927 62.6049 1.56381 63.7311C1.42165 63.7311 1.42165 63.8719 1.27948 63.8719C0.426494 64.1535 0 64.0127 0 63.0272C0 58.5223 0 53.8766 0 49.3845C0 48.399 0.28433 48.1175 1.13732 47.8359C3.26979 47.2728 5.40226 46.7097 7.53473 46.1466C8.38772 45.865 9.38288 45.7242 10.2359 45.4427C10.9467 45.3019 11.231 44.8795 11.231 44.1756C11.231 43.0494 11.231 41.9232 11.231 40.6562C11.231 40.2338 11.0889 39.9523 10.6624 39.9523C8.24556 39.3892 5.82876 38.9668 3.41195 38.4037C1.70598 37.9814 0.710824 36.7144 0.284329 35.025C0.142165 34.4619 0 33.8988 0 33.1949C0 31.0832 0 29.1123 0 27.0006C0 24.6074 1.56381 22.2141 3.98061 21.5102C5.40226 20.9471 6.82391 20.6656 8.24556 20.384C9.66721 19.9617 11.0889 19.5393 12.5105 19.117C15.0695 18.5539 16.9176 19.6801 17.0598 22.3549C17.0598 23.7627 17.0598 25.1705 17.0598 26.5783C17.0598 27.9861 16.7754 28.2676 15.496 28.69C14.3586 28.9715 13.3635 29.2531 12.2262 29.5346C11.6575 29.6754 11.231 29.2531 11.231 28.69C11.231 27.8453 11.231 27.0006 11.231 26.0152C11.231 25.5928 10.9467 25.3113 10.378 25.4521C9.38288 25.5928 8.38772 25.8744 7.39257 26.1559C7.39257 26.1559 7.2504 26.1559 7.2504 26.2967C5.68659 26.7191 5.68659 26.8598 5.68659 28.4084C5.68659 29.3939 5.68659 30.3793 5.68659 31.5055C5.68659 32.2094 5.82876 32.3502 6.53958 32.491C8.52989 32.9133 10.5202 33.3357 12.3683 33.758C13.2213 33.8988 13.9321 34.0396 14.643 34.4619C16.349 35.3066 16.9176 36.8551 17.0598 38.6853C17.0598 40.6562 17.0598 42.6271 17.0598 44.7388C17.0598 45.1611 16.9176 45.5834 16.7754 46.1466C17.2019 46.0058 17.6284 46.0058 17.9128 45.865C19.1922 45.5834 20.3296 45.1611 21.609 44.8795C21.7512 44.7388 21.8934 44.598 21.8934 44.3164C22.0355 44.3164 21.8934 44.1756 21.8934 44.0349C21.8934 35.3066 21.8934 26.7319 21.8934 18.0036C21.8934 17.0181 22.0355 16.5958 23.1729 16.3142C24.3102 16.0327 25.3053 15.7511 26.4427 15.4695C27.2956 15.188 27.58 15.4695 27.58 16.455C27.58 24.3386 27.58 32.2094 27.58 40.0931V40.797C28.2908 40.6562 29.0016 40.3746 29.7124 40.2338C30.8498 39.9523 32.1292 39.5299 33.2666 39.2484C33.9774 39.1076 34.4039 39.3892 34.4039 40.0931C34.4039 40.5154 34.4039 40.9377 34.4039 41.3601C35.2569 41.2193 35.8255 41.0785 36.5364 40.797H36.6785C36.9628 40.6562 37.5315 40.6562 37.6737 40.3746C37.8158 40.0931 37.6737 39.5299 37.6737 39.1076C37.6737 34.0396 37.6737 28.8307 37.6737 23.7755C37.6737 22.79 38.1002 22.3677 39.0953 22.0862C40.0905 21.8046 41.0856 21.523 42.2229 21.2415C43.0759 20.9599 43.5024 21.2415 43.5024 22.2269C43.5024 27.5765 43.5024 32.9261 43.5024 38.2629C43.5024 38.4037 43.5024 38.6853 43.5024 38.9668C44.3554 38.826 45.2084 38.5445 46.0614 38.4037C46.7722 38.1222 47.483 37.8406 48.1939 37.6998C48.7625 37.6998 48.9047 37.4183 48.9047 36.8551C48.9047 29.3939 48.9047 21.9454 48.9047 14.3433C48.9047 13.0763 49.189 11.8093 49.8998 10.6831C50.7528 9.41605 51.8901 8.57138 53.3118 8.28982C54.7334 7.86748 56.2973 7.44515 57.7189 7.02281C58.8562 6.74125 59.9935 6.45969 61.273 6.17814C61.6995 6.03736 62.2682 6.03736 62.8368 5.89658C64.5428 5.7558 65.8223 7.44515 65.8223 8.71216C65.9645 11.1054 65.9645 13.4986 65.9645 16.0327C65.9645 16.5958 65.3958 17.0181 64.5428 17.2997C63.5477 17.5812 62.4103 17.8628 61.4152 18.1443C60.5622 18.2851 60.1357 18.1443 60.1357 17.1589C60.1357 16.0327 60.1357 14.7656 60.1357 13.6394C60.1357 13.2171 60.1357 12.7947 60.1357 12.2316C59.2827 12.3724 58.5719 12.5132 57.8611 12.654C57.1502 12.7947 56.4394 13.0763 55.8708 13.2171C55.0178 13.3579 54.5913 13.7802 54.5913 14.6249C54.5913 20.6784 54.5913 26.5783 54.5913 32.491C54.5913 33.3357 54.8756 33.4764 55.5864 33.3357C56.8659 32.9133 58.0032 32.6318 59.1406 32.3502C59.7092 32.2094 60.1357 31.9279 60.1357 31.3648C60.1357 30.9424 60.1357 30.3793 60.1357 29.957C60.2779 28.69 60.42 28.4084 61.6995 28.1269C62.6947 27.8453 63.6898 27.5637 64.685 27.2822C65.538 27.1414 65.9645 27.2822 65.9645 28.2676C65.9645 29.5346 65.9645 30.9424 65.9645 32.2094C65.9645 32.491 65.9645 32.7726 65.9645 33.0541C67.1018 32.6318 68.2391 32.3502 69.3764 32.0687C69.8029 31.9279 70.0872 31.7871 70.5137 31.7871C70.9402 31.7871 70.9402 31.5055 70.9402 31.224C70.9402 30.9424 71.0824 30.8016 71.0824 30.6609C71.0824 23.0588 70.9402 15.4695 71.0824 7.86748C71.0824 5.47424 72.3619 3.64411 74.4943 2.65866C75.7738 2.09555 77.3376 1.81399 78.6171 1.53243C80.4653 0.969316 82.1712 0.546979 83.8772 0.124642C86.0097 -0.438474 88 0.969316 88 3.081C88 6.45969 88 9.83839 88 13.2171C87.8578 15.4695 86.0097 17.8628 83.5929 18.4259C81.7448 18.8482 80.0388 19.4114 78.3328 19.8337C78.1906 19.8337 78.0485 19.8337 77.7641 19.9745C77.3376 20.1152 76.769 20.256 76.769 20.9599C76.769 22.9308 76.769 24.9017 76.769 26.8726C76.7302 27.0006 76.7302 27.1414 76.8724 27.423ZM43.4766 13.7802C43.4766 14.3433 43.4766 14.9064 43.4766 15.4695C43.4766 16.1734 43.1922 16.5958 42.4814 16.7366C41.3441 17.1589 40.2068 17.4404 39.0695 17.722C38.0743 18.0036 37.6478 17.722 37.6478 16.5958C37.6478 15.7511 37.79 14.9064 37.6478 14.0618C37.6478 12.3724 38.2165 12.3724 39.496 11.9501C40.4911 11.6685 41.3441 11.387 42.3393 11.1054C42.9079 10.9646 43.4766 11.387 43.4766 11.9501C43.4766 12.5132 43.4766 13.2171 43.4766 13.7802Z"/>
</svg>
