<svg width="37" height="36" viewBox="0 0 37 36" fill="none" xmlns="http://www.w3.org/2000/svg">
  <path d="M12.752 16.0818V24H15.248V16.0818H12.752ZM19.25 24H16.748V17.8713C16.748 17.8713 16.707 16.3511 16.707 16.0818H19.168L19.25 17.1771C19.748 16.411 20.498 15.8304 21.5 15.8304C23.252 15.8304 24.5 17.1052 24.5 19.4035V24H21.998V19.6608C21.998 18.38 21.3887 17.8713 20.6387 17.8713C19.8887 17.8713 19.25 18.38 19.25 19.4035V24ZM13.9883 14.807C14.9141 14.807 15.5 14.1845 15.5 13.4005C15.4883 12.6105 14.9141 12 14.0117 12C13.0977 12 12.5 12.6105 12.5 13.4005C12.5 14.1845 13.0859 14.807 13.9707 14.807H13.9883Z" fill="#BEBEBE"/>
  <rect x="1" y="0.5" width="35" height="35" rx="17.5" stroke="#333333"/>
</svg>
