<svg width="16" height="16" viewBox="0 0 16 16" fill="none" xmlns="http://www.w3.org/2000/svg">
  <path d="M3.7318 11.7318C3.60683 11.8568 3.60683 12.0594 3.7318 12.1843C3.85677 12.3093 4.05938 12.3093 4.18435 12.1843L3.7318 11.7318ZM12.0726 4.29615C12.1975 4.17118 12.1975 3.96857 12.0726 3.8436C11.9476 3.71863 11.745 3.71863 11.62 3.8436L12.0726 4.29615ZM5.93013 3.74987C5.7534 3.74987 5.61013 3.89314 5.61013 4.06987C5.61013 4.24661 5.7534 4.38987 5.93013 4.38987L5.93013 3.74987ZM11.8565 4.38987C12.0333 4.38987 12.1765 4.2466 12.1765 4.06987C12.1765 3.89314 12.0333 3.74987 11.8565 3.74987L11.8565 4.38987ZM11.5314 9.99115C11.5314 10.1679 11.6747 10.3112 11.8514 10.3112C12.0281 10.3112 12.1714 10.1679 12.1714 9.99116L11.5314 9.99115ZM12.1714 4.06474C12.1714 3.88801 12.0281 3.74474 11.8514 3.74474C11.6747 3.74474 11.5314 3.88801 11.5314 4.06474L12.1714 4.06474ZM4.18435 12.1843L12.0726 4.29615L11.62 3.8436L3.7318 11.7318L4.18435 12.1843ZM5.93013 4.38987L11.8565 4.38987L11.8565 3.74987L5.93013 3.74987L5.93013 4.38987ZM12.1714 9.99116L12.1714 4.06474L11.5314 4.06474L11.5314 9.99115L12.1714 9.99116Z" fill="#122933"/>
</svg>
