<?xml version="1.0" standalone="no"?>
<!DOCTYPE svg PUBLIC "-//W3C//DTD SVG 20010904//EN"
 "http://www.w3.org/TR/2001/REC-SVG-20010904/DTD/svg10.dtd">
<svg version="1.0" xmlns="http://www.w3.org/2000/svg"
 width="700.000000pt" height="700.000000pt" viewBox="0 0 700.000000 700.000000"
 preserveAspectRatio="xMidYMid meet">
<metadata>
Created by potrace 1.14, written by Peter Selinger 2001-2017
</metadata>
<g transform="translate(0.000000,700.000000) scale(0.100000,-0.100000)"
fill="#000000" stroke="none">
<path d="M2830 6479 c-569 -400 -1032 -574 -1585 -598 l-150 -6 -3 -65 -3 -66
83 -12 c273 -39 446 -272 488 -654 7 -65 10 -840 10 -2333 l0 -2235 76 0 75 0
524 240 c288 132 526 240 530 240 4 0 51 -42 105 -94 254 -244 596 -402 964
-447 135 -16 382 -7 519 21 532 105 959 444 1212 965 276 567 305 1204 80
1765 -243 606 -725 1033 -1310 1160 -451 97 -974 -5 -1307 -257 l-58 -43 0
1250 0 1250 -67 0 -68 0 -115 -81z m809 -2425 c136 -64 304 -256 441 -504 256
-461 481 -1200 556 -1825 20 -169 23 -513 5 -635 -38 -260 -118 -425 -241
-494 -48 -27 -65 -31 -130 -31 -64 0 -85 5 -140 32 -259 127 -546 581 -757
1198 -126 371 -223 793 -264 1155 -20 171 -17 552 4 670 73 403 263 559 526
434z"/>
</g>
</svg>
